<svg width="24" height="24" viewBox="0 0 24 24" fill="none" xmlns="http://www.w3.org/2000/svg">
<path d="M19.5 7.0275V2.25C19.5 2.05109 19.421 1.86032 19.2803 1.71967C19.1397 1.57902 18.9489 1.5 18.75 1.5H16.5V3H18V8.04C18 8.04 20.25 8.42025 20.25 11.25V21H18V22.5H21C21.1989 22.5 21.3897 22.421 21.5303 22.2803C21.671 22.1397 21.75 21.9489 21.75 21.75V11.25C21.75 8.661 20.3002 7.482 19.5 7.0275ZM14.25 7.0275V2.25C14.25 2.05109 14.171 1.86032 14.0303 1.71967C13.8897 1.57902 13.6989 1.5 13.5 1.5H11.25V3H12.75V8.04C12.75 8.04 15 8.42025 15 11.25V21H12.75V22.5H15.75C15.9489 22.5 16.1397 22.421 16.2803 22.2803C16.421 22.1397 16.5 21.9489 16.5 21.75V11.25C16.5 8.661 15.0503 7.482 14.25 7.0275ZM9.75 21H7.5V22.5H10.5C10.6989 22.5 10.8897 22.421 11.0303 22.2803C11.171 22.1397 11.25 21.9489 11.25 21.75V18.75H9.75V21ZM3.75 18.75H2.25V21.75C2.25 21.9489 2.32902 22.1397 2.46967 22.2803C2.61032 22.421 2.80109 22.5 3 22.5H6V21H3.75V18.75ZM9.75 13.5H11.25V17.25H9.75V13.5ZM2.25 13.5H3.75V17.25H2.25V13.5ZM9 7.0275V2.25C9 2.05109 8.92098 1.86032 8.78033 1.71967C8.63968 1.57902 8.44891 1.5 8.25 1.5H5.25C5.05109 1.5 4.86032 1.57902 4.71967 1.71967C4.57902 1.86032 4.5 2.05109 4.5 2.25V7.0275C3.69975 7.482 2.25 8.661 2.25 11.25V12H3.75V11.25C3.75 8.421 6 8.04 6 8.04V3H7.5V8.04C7.5 8.04 9.75 8.421 9.75 11.25V12H11.25V11.25C11.25 8.661 9.80025 7.482 9 7.0275Z" fill="#B68C55"/>
</svg>
