<svg width="24" height="24" viewBox="0 0 24 24" fill="none" xmlns="http://www.w3.org/2000/svg">
<path fill-rule="evenodd" clip-rule="evenodd" d="M11.0137 4.8C11.1857 4.575 11.4977 4.25 11.9997 4.25C12.5017 4.25 12.8137 4.575 12.9857 4.8C13.1507 5.014 13.3157 5.311 13.4857 5.616L13.6067 5.834L13.6637 5.934L13.7627 5.957L14.0007 6.011C14.3277 6.085 14.6537 6.158 14.9037 6.257C15.1797 6.366 15.5537 6.577 15.6987 7.042C15.8407 7.497 15.6617 7.883 15.5057 8.132C15.3607 8.362 15.1407 8.618 14.9157 8.881L14.7557 9.069L14.6737 9.166C14.6757 9.202 14.6807 9.244 14.6857 9.301L14.7097 9.551C14.7437 9.902 14.7767 10.242 14.7647 10.514C14.7527 10.8 14.6847 11.232 14.2967 11.525C13.8967 11.829 13.4567 11.763 13.1767 11.682C12.9187 11.609 12.6137 11.468 12.3067 11.327L12.0847 11.224L11.9997 11.185L11.9147 11.225L11.6917 11.327C11.3857 11.468 11.0807 11.609 10.8227 11.682C10.5427 11.762 10.1027 11.829 9.70274 11.525C9.31574 11.232 9.24674 10.8 9.23474 10.515C9.22274 10.242 9.25474 9.902 9.28974 9.55L9.31374 9.3L9.32674 9.166L9.24374 9.069L9.08374 8.881C8.85874 8.618 8.63874 8.361 8.49374 8.131C8.33774 7.883 8.15874 7.497 8.30074 7.041C8.44474 6.578 8.81974 6.366 9.09574 6.257C9.34574 6.158 9.67174 6.085 9.99874 6.011L10.2367 5.957L10.3367 5.934L10.3927 5.834L10.5137 5.616C10.6837 5.311 10.8487 5.014 11.0137 4.8ZM11.9997 6.034C11.9424 6.134 11.8761 6.252 11.8007 6.388L11.7027 6.564L11.6797 6.604C11.6017 6.748 11.4717 6.986 11.2547 7.151C11.0337 7.319 10.7667 7.377 10.6117 7.411L10.5677 7.42L10.3777 7.463C10.2017 7.503 10.0587 7.535 9.93774 7.566C10.0167 7.663 10.1197 7.785 10.2537 7.942L10.3837 8.094L10.4137 8.128C10.5217 8.253 10.6957 8.453 10.7767 8.713C10.8567 8.969 10.8287 9.233 10.8117 9.399L10.8067 9.446L10.7867 9.649C10.7713 9.8022 10.7573 9.95554 10.7447 10.109C10.8497 10.063 10.9677 10.009 11.1087 9.944L11.2877 9.862L11.3277 9.842C11.4717 9.775 11.7207 9.657 11.9997 9.657C12.2787 9.657 12.5277 9.775 12.6717 9.843L12.7117 9.862L12.8907 9.944C13.0301 10.0087 13.1514 10.0637 13.2547 10.109C13.2422 9.95554 13.2282 9.8022 13.2127 9.649L13.1927 9.446L13.1877 9.399C13.1707 9.232 13.1427 8.969 13.2227 8.713C13.3027 8.453 13.4777 8.253 13.5857 8.128L13.6157 8.094L13.7457 7.942C13.8797 7.785 13.9827 7.663 14.0617 7.566C13.9407 7.536 13.7977 7.503 13.6217 7.463L13.4317 7.42L13.3877 7.41C13.2327 7.377 12.9657 7.319 12.7447 7.15C12.5277 6.986 12.3977 6.748 12.3197 6.605L12.2967 6.564L12.1987 6.388C12.1241 6.252 12.0577 6.134 11.9997 6.034Z" fill="#B68C55"/>
<path fill-rule="evenodd" clip-rule="evenodd" d="M7.498 1.6068C8.98606 1.36228 10.492 1.24286 12 1.2498C13.828 1.2498 15.339 1.4108 16.502 1.6068L16.637 1.6298C17.647 1.7988 18.487 1.9398 19.143 2.7478C19.564 3.2668 19.7 3.8278 19.731 4.4528L20.223 4.6168C20.686 4.7708 21.093 4.9068 21.414 5.0568C21.762 5.2188 22.081 5.4268 22.325 5.7658C22.569 6.1048 22.666 6.4728 22.71 6.8538C22.75 7.2068 22.75 7.6338 22.75 8.1238V8.2678C22.75 8.6698 22.75 9.0248 22.72 9.3218C22.688 9.6428 22.617 9.9558 22.44 10.2578C22.261 10.5608 22.022 10.7748 21.757 10.9588C21.512 11.1288 21.202 11.3018 20.85 11.4968L18.21 12.9638C17.67 14.0248 16.93 14.9708 15.91 15.6538C15.035 16.2408 13.988 16.6128 12.75 16.7188V18.7498H14.18C14.5846 18.7498 14.9767 18.89 15.2895 19.1465C15.6024 19.4031 15.8167 19.7601 15.896 20.1568L16.115 21.2498H18C18.1989 21.2498 18.3897 21.3288 18.5303 21.4695C18.671 21.6101 18.75 21.8009 18.75 21.9998C18.75 22.1987 18.671 22.3895 18.5303 22.5301C18.3897 22.6708 18.1989 22.7498 18 22.7498H6C5.80109 22.7498 5.61032 22.6708 5.46967 22.5301C5.32902 22.3895 5.25 22.1987 5.25 21.9998C5.25 21.8009 5.32902 21.6101 5.46967 21.4695C5.61032 21.3288 5.80109 21.2498 6 21.2498H7.885L8.104 20.1568C8.1833 19.7601 8.39761 19.4031 8.71047 19.1465C9.02334 18.89 9.41542 18.7498 9.82 18.7498H11.25V16.7188C10.012 16.6128 8.965 16.2408 8.09 15.6548C7.071 14.9708 6.33 14.0248 5.79 12.9638L3.15 11.4968C2.83924 11.3321 2.53656 11.1525 2.243 10.9588C1.96606 10.7795 1.73298 10.5403 1.561 10.2588C1.3982 9.97151 1.30216 9.65126 1.28 9.3218C1.25 9.0248 1.25 8.6698 1.25 8.2678V8.1228C1.25 7.6348 1.25 7.2068 1.29 6.8538C1.334 6.4728 1.43 6.1038 1.675 5.7658C1.919 5.4268 2.238 5.2188 2.585 5.0558C2.908 4.9058 3.314 4.7708 3.777 4.6168L4.269 4.4528C4.3 3.8268 4.436 3.2668 4.857 2.7478C5.514 1.9388 6.353 1.7978 7.364 1.6298L7.498 1.6068ZM9.415 21.2498H14.585L14.425 20.4508C14.4137 20.3941 14.3831 20.3432 14.3384 20.3065C14.2938 20.2699 14.2378 20.2498 14.18 20.2498H9.82C9.76223 20.2498 9.70625 20.2699 9.66158 20.3065C9.61692 20.3432 9.58632 20.3941 9.575 20.4508L9.415 21.2498ZM4.302 6.0228L4.288 6.0278C3.778 6.1978 3.454 6.3078 3.218 6.4168C3.001 6.5168 2.931 6.5878 2.892 6.6428C2.853 6.6978 2.808 6.7858 2.781 7.0238C2.751 7.2818 2.75 7.6238 2.75 8.1618V8.2348C2.75 8.6798 2.75 8.9588 2.772 9.1728C2.792 9.3688 2.824 9.4478 2.854 9.4978C2.883 9.5478 2.936 9.6138 3.098 9.7268C3.274 9.8488 3.518 9.9848 3.908 10.2018L4.973 10.7938C4.545 9.2238 4.373 7.5438 4.303 6.0238M19.028 10.7938C19.456 9.2238 19.628 7.5438 19.699 6.0238L19.713 6.0288C20.223 6.1988 20.547 6.3088 20.783 6.4178C21 6.5178 21.07 6.5888 21.109 6.6438C21.148 6.6988 21.193 6.7868 21.22 7.0248C21.25 7.2828 21.251 7.6248 21.251 8.1628V8.2358C21.251 8.6808 21.251 8.9598 21.229 9.1738C21.209 9.3698 21.177 9.4488 21.147 9.4988C21.118 9.5488 21.065 9.6148 20.903 9.7278C20.726 9.8498 20.483 9.9858 20.093 10.2028L19.028 10.7938ZM12 2.7498C10.26 2.7498 8.833 2.9028 7.748 3.0858C6.541 3.2898 6.288 3.3658 6.022 3.6938C5.76 4.0158 5.735 4.3218 5.788 5.6768C5.878 7.9348 6.176 10.3728 7.098 12.2268C7.554 13.1408 8.15 13.8888 8.926 14.4088C9.696 14.9258 10.691 15.2498 12 15.2498C13.31 15.2498 14.304 14.9258 15.075 14.4088C15.851 13.8888 16.446 13.1408 16.901 12.2258C17.824 10.3728 18.122 7.9358 18.211 5.6758C18.266 4.3218 18.241 4.0158 17.979 3.6938C17.713 3.3658 17.459 3.2898 16.252 3.0858C14.8465 2.85571 13.4242 2.74332 12 2.7498Z" fill="#B68C55"/>
</svg>
