<svg width="24" height="24" viewBox="0 0 24 24" fill="none" xmlns="http://www.w3.org/2000/svg">
<path d="M17 15.9998L13 11.9998V8.81976C14.35 8.32976 15.26 6.92976 14.93 5.35976C14.8021 4.77668 14.5038 4.24477 14.0729 3.83167C13.642 3.41857 13.098 3.14292 12.51 3.03976C12.0789 2.9654 11.6368 2.9862 11.2146 3.10072C10.7924 3.21524 10.4004 3.42071 10.066 3.70272C9.73157 3.98472 9.46288 4.33645 9.27874 4.73325C9.0946 5.13005 8.99946 5.56232 9 5.99976C9 7.29976 9.84 8.39976 11 8.81976V11.9998L7 15.9998H4C3.45 15.9998 3 16.4498 3 16.9998V19.9998C3 20.5498 3.45 20.9998 4 20.9998H7C7.55 20.9998 8 20.5498 8 19.9998V17.9498L12 13.7498L16 17.9498V19.9998C16 20.5498 16.45 20.9998 17 20.9998H20C20.55 20.9998 21 20.5498 21 19.9998V16.9998C21 16.4498 20.55 15.9998 20 15.9998H17Z" fill="#B68C55"/>
</svg>
