<svg width="24" height="24" viewBox="0 0 24 24" fill="none" xmlns="http://www.w3.org/2000/svg">
<path d="M21.0071 9.69309C21.1316 9.53735 21.2115 9.3507 21.2381 9.15309C21.2775 8.88812 21.2188 8.61788 21.0731 8.39309L18.1871 3.89909C18.0328 3.66015 17.792 3.49027 17.5151 3.42509C17.4308 3.41429 17.3454 3.41429 17.2611 3.42509H6.73111C6.57095 3.42626 6.41298 3.4624 6.26824 3.53097C6.12349 3.59954 5.99547 3.6989 5.89311 3.82209L5.80511 3.93209L2.91911 8.42609C2.79808 8.61834 2.73954 8.84336 2.75154 9.07022C2.76353 9.29709 2.84548 9.51467 2.98611 9.69309L11.1261 20.1581C11.2941 20.3681 11.5331 20.5093 11.7981 20.5551C11.9535 20.5929 12.1157 20.5929 12.2711 20.5551C12.5071 20.4951 12.7161 20.3591 12.8671 20.1691L21.0071 9.69309Z" stroke="#B68C55" stroke-width="1.5" stroke-linecap="round" stroke-linejoin="round"/>
<path d="M14.1999 3.45801L15.7739 9.15301L12.2709 20.543M11.7979 20.555L7.77691 9.15301L9.79291 3.45801M2.75391 9.15301H21.2379" stroke="#B68C55" stroke-width="1.5" stroke-linecap="round" stroke-linejoin="round"/>
</svg>
