<svg width="24" height="24" viewBox="0 0 24 24" fill="none" xmlns="http://www.w3.org/2000/svg">
<path d="M8 12.2861V3.71407H11.2C12.3104 2.62317 13.8013 2.00652 15.3579 1.99432C16.9144 1.98213 18.4148 2.57535 19.5422 3.64872C20.6695 4.72208 21.3356 6.19157 21.3998 7.74686C21.4639 9.30215 20.9211 10.8215 19.886 11.9841L21.811 17.2701C21.9494 17.6411 22.0129 18.0358 21.998 18.4315C21.9831 18.8272 21.8899 19.216 21.724 19.5755C21.5581 19.935 21.3226 20.2581 21.0312 20.5262C20.7398 20.7943 20.3982 21.002 20.0261 21.1374C19.6541 21.2729 19.2589 21.3333 18.8633 21.3152C18.4678 21.2972 18.0797 21.201 17.7215 21.0322C17.3633 20.8635 17.042 20.6255 16.7763 20.332C16.5105 20.0384 16.3055 19.6952 16.173 19.3221L14.191 13.8781C13.0621 13.6456 12.0241 13.0929 11.201 12.2861H8ZM6 12.2861H4C3.46957 12.2861 2.96086 12.0754 2.58579 11.7003C2.21071 11.3252 2 10.8165 2 10.2861V5.71407C2 5.18363 2.21071 4.67492 2.58579 4.29985C2.96086 3.92478 3.46957 3.71407 4 3.71407H6V12.2861ZM14 7.00007C13.7348 7.00007 13.4804 7.10542 13.2929 7.29296C13.1054 7.48049 13 7.73485 13 8.00007C13 8.26528 13.1054 8.51964 13.2929 8.70717C13.4804 8.89471 13.7348 9.00007 14 9.00007H17C17.2652 9.00007 17.5196 8.89471 17.7071 8.70717C17.8946 8.51964 18 8.26528 18 8.00007C18 7.73485 17.8946 7.48049 17.7071 7.29296C17.5196 7.10542 17.2652 7.00007 17 7.00007H14Z" fill="#B68C55"/>
</svg>
