<svg width="24" height="24" viewBox="0 0 24 24" fill="none" xmlns="http://www.w3.org/2000/svg">
<path d="M19.4238 2.66943C15.9418 3.28343 12.1318 6.10943 10.6568 9.95943C9.0443 14.1679 8.6083 14.6284 6.6418 15.6934C4.7508 16.7174 2.2998 17.5359 2.2998 17.5359" stroke="#B68C55" stroke-width="2" stroke-linecap="round" stroke-linejoin="round"/>
<path d="M4.81836 16.5535C6.92836 15.2835 9.67236 16.595 10.9009 17.4555C12.1294 18.3155 13.3789 18.2755 14.0959 17.251C14.8129 16.2265 14.4239 15.039 13.1954 14.179C12.3759 13.6055 9.63186 12.294 10.6564 9.95898" stroke="#B68C55" stroke-width="2" stroke-linecap="round" stroke-linejoin="round"/>
<path d="M21.5941 4.7998C16.4326 6.0688 14.3841 7.6863 12.3766 13.6048M10.4916 17.1683C10.1026 18.0148 9.34407 20.0273 9.42607 21.3053" stroke="#B68C55" stroke-width="2" stroke-linecap="round" stroke-linejoin="round"/>
</svg>
