<svg width="24" height="24" viewBox="0 0 24 24" fill="none" xmlns="http://www.w3.org/2000/svg">
<g clip-path="url(#clip0_42_23)">
<path d="M16.8004 3.51758C14.4004 3.51758 13.1929 4.55258 12.0004 5.91758C10.8079 4.55258 9.60039 3.51758 7.20039 3.51758C4.80039 3.51758 2.40039 5.11883 2.40039 9.91883C2.40039 12.3188 4.80039 17.1188 12.0004 21.1201C19.2004 17.1188 21.6004 12.3188 21.6004 9.91883C21.6004 5.11883 19.2004 3.51758 16.8004 3.51758ZM12.0004 19.2751C5.46414 15.3976 4.00164 11.2388 4.00164 9.91883C4.00164 7.72883 4.55664 5.11883 7.20039 5.11883C8.88039 5.11883 9.69789 5.71508 10.7966 6.97133L12.0004 8.31758L13.2041 6.97133C14.3029 5.71508 15.1204 5.11883 16.8004 5.11883C19.4441 5.11883 19.9991 7.72883 19.9991 9.91883C19.9991 11.2388 18.5366 15.3976 12.0004 19.2751Z" fill="#B68C55"/>
</g>
<defs>
<clipPath id="clip0_42_23">
<rect width="19.2" height="19.2" fill="white" transform="translate(2.40039 2.3999)"/>
</clipPath>
</defs>
</svg>
