<svg width="24" height="24" viewBox="0 0 24 24" fill="none" xmlns="http://www.w3.org/2000/svg">
<g clip-path="url(#clip0_13_115)">
<path d="M8.4 18.2C8.78 18.7 9 19.32 9 20C9 21.66 7.66 23 6 23C4.34 23 3 21.66 3 20C3 18.34 4.34 17 6 17C6.44 17 6.85 17.09 7.23 17.26L8.64 15.49C8.19683 14.9938 7.86922 14.4054 7.68074 13.7674C7.49226 13.1293 7.44761 12.4574 7.55 11.8L5.52 11.12C5.17025 11.6655 4.65309 12.083 4.04607 12.3098C3.43904 12.5367 2.77484 12.5606 2.15304 12.3782C1.53124 12.1957 0.985337 11.8166 0.597167 11.2977C0.208997 10.7788 -0.000528285 10.148 1.00031e-06 9.5C1.00031e-06 7.84 1.34 6.5 3 6.5C4.66 6.5 6 7.84 6 9.5C6 9.57 6 9.64 5.99 9.71L8.02 10.39C8.34184 9.78146 8.79987 9.25547 9.35841 8.85305C9.91694 8.45063 10.5609 8.18264 11.24 8.07V5.91C10.5987 5.73856 10.0318 5.3606 9.62688 4.83459C9.22197 4.30857 9.00166 3.6638 9 3C9 1.34 10.34 0 12 0C13.66 0 15 1.34 15 3C15 4.4 14.04 5.57 12.75 5.91V8.07C14.15 8.3 15.33 9.18 15.97 10.39L18 9.71V9.5C18 7.84 19.34 6.5 21 6.5C22.66 6.5 24 7.84 24 9.5C24 11.16 22.66 12.5 21 12.5C19.94 12.5 19.02 11.95 18.48 11.13L16.45 11.81C16.5531 12.4674 16.5088 13.1395 16.3203 13.7777C16.1318 14.4158 15.8038 15.0041 15.36 15.5L16.77 17.27C17.15 17.09 17.56 17 18 17C19.66 17 21 18.34 21 20C21 21.66 19.66 23 18 23C16.34 23 15 21.66 15 20C15 19.32 15.22 18.7 15.6 18.2L14.19 16.43C12.84 17.18 11.18 17.19 9.82 16.43L8.4 18.2Z" fill="#B68C55"/>
</g>
<defs>
<clipPath id="clip0_13_115">
<rect width="24" height="24" fill="white"/>
</clipPath>
</defs>
</svg>
